<?xml version="1.0" encoding="UTF-8"?>
<svg xmlns="http://www.w3.org/2000/svg" xmlns:xlink="http://www.w3.org/1999/xlink" width="85.438pt" height="85.438pt" viewBox="0 0 85.438 85.438" version="1.1">
<defs>
<clipPath id="clip1">
  <path d="M 42 0 L 85.4375 0 L 85.4375 43 L 42 43 Z M 42 0 "/>
</clipPath>
<clipPath id="clip2">
  <path d="M 42 42 L 85.4375 42 L 85.4375 43 L 42 43 Z M 42 42 "/>
</clipPath>
<clipPath id="clip3">
  <path d="M 37 37 L 73 37 L 73 85.4375 L 37 85.4375 Z M 37 37 "/>
</clipPath>
<clipPath id="clip4">
  <path d="M 12 37 L 49 37 L 49 85.4375 L 12 85.4375 Z M 12 37 "/>
</clipPath>
</defs>
<g id="surface1">
<g clip-path="url(#clip1)" clip-rule="nonzero">
<path style=" stroke:none;fill-rule:nonzero;fill:rgb(75%,75%,75%);fill-opacity:0.5;" d="M 42.71875 42.71875 L 67.265625 0.199219 L 85.238281 0.199219 L 85.238281 42.71875 "/>
</g>
<path style="fill:none;stroke-width:0.3985;stroke-linecap:butt;stroke-linejoin:miter;stroke:rgb(0%,0%,0%);stroke-opacity:1;stroke-miterlimit:10;" d="M -0.00025 0.00025 L 24.202875 13.972906 " transform="matrix(1,0,0,-1,42.719,42.719)"/>
<path style="fill:none;stroke-width:0.3985;stroke-linecap:round;stroke-linejoin:round;stroke:rgb(0%,0%,0%);stroke-opacity:1;stroke-miterlimit:10;" d="M -2.070827 2.391749 C -1.694939 0.956856 -0.850047 0.279602 -0.000468347 0.00108881 C -0.848669 -0.280511 -1.694266 -0.956039 -2.072787 -2.392897 " transform="matrix(0.86601,-0.5,-0.5,-0.86601,67.0947,28.64524)"/>
<path style="fill:none;stroke-width:0.3985;stroke-linecap:butt;stroke-linejoin:miter;stroke:rgb(0%,0%,0%);stroke-opacity:1;stroke-miterlimit:10;" d="M -0.00025 0.00025 L -0.00025 27.949469 " transform="matrix(1,0,0,-1,42.719,42.719)"/>
<path style="fill:none;stroke-width:0.3985;stroke-linecap:round;stroke-linejoin:round;stroke:rgb(0%,0%,0%);stroke-opacity:1;stroke-miterlimit:10;" d="M -2.073081 2.390875 C -1.694175 0.957281 -0.850425 0.277594 0.0011375 0.00025 C -0.850425 -0.277094 -1.694175 -0.956781 -2.073081 -2.390375 " transform="matrix(0,-1,-1,0,42.719,14.57145)"/>
<path style="fill:none;stroke-width:0.3985;stroke-linecap:butt;stroke-linejoin:miter;stroke:rgb(0%,0%,0%);stroke-opacity:1;stroke-miterlimit:10;" d="M -0.00025 0.00025 L -24.203375 13.972906 " transform="matrix(1,0,0,-1,42.719,42.719)"/>
<path style="fill:none;stroke-width:0.3985;stroke-linecap:round;stroke-linejoin:round;stroke:rgb(0%,0%,0%);stroke-opacity:1;stroke-miterlimit:10;" d="M -2.072354 2.393147 C -1.693833 0.956289 -0.851619 0.278808 -0.0000353304 -0.000838807 C -0.849614 -0.279352 -1.694506 -0.956606 -2.070394 -2.391499 " transform="matrix(-0.86601,-0.5,-0.5,0.86601,18.3433,28.64524)"/>
<path style="fill:none;stroke-width:0.3985;stroke-linecap:butt;stroke-linejoin:miter;stroke:rgb(0%,0%,0%);stroke-opacity:1;stroke-miterlimit:10;" d="M -0.00025 0.00025 L -24.203375 -13.972406 " transform="matrix(1,0,0,-1,42.719,42.719)"/>
<path style="fill:none;stroke-width:0.3985;stroke-linecap:round;stroke-linejoin:round;stroke:rgb(0%,0%,0%);stroke-opacity:1;stroke-miterlimit:10;" d="M -2.070644 2.391066 C -1.694756 0.956173 -0.849864 0.278919 -0.000285337 0.00040579 C -0.851869 -0.279241 -1.694083 -0.956722 -2.070651 -2.390197 " transform="matrix(-0.86601,0.5,0.5,0.86601,18.3433,56.79276)"/>
<path style="fill:none;stroke-width:0.3985;stroke-linecap:butt;stroke-linejoin:miter;stroke:rgb(0%,0%,0%);stroke-opacity:1;stroke-miterlimit:10;" d="M -0.00025 0.00025 L -0.00025 -27.948969 " transform="matrix(1,0,0,-1,42.719,42.719)"/>
<path style="fill:none;stroke-width:0.3985;stroke-linecap:round;stroke-linejoin:round;stroke:rgb(0%,0%,0%);stroke-opacity:1;stroke-miterlimit:10;" d="M -2.073581 2.390375 C -1.694675 0.956781 -0.850925 0.277094 0.0006375 -0.00025 C -0.850925 -0.277594 -1.694675 -0.957281 -2.073581 -2.390875 " transform="matrix(0,1,1,0,42.719,70.86655)"/>
<path style="fill:none;stroke-width:0.3985;stroke-linecap:butt;stroke-linejoin:miter;stroke:rgb(0%,0%,0%);stroke-opacity:1;stroke-miterlimit:10;" d="M -0.00025 0.00025 L 24.202875 -13.972406 " transform="matrix(1,0,0,-1,42.719,42.719)"/>
<path style="fill:none;stroke-width:0.3985;stroke-linecap:round;stroke-linejoin:round;stroke:rgb(0%,0%,0%);stroke-opacity:1;stroke-miterlimit:10;" d="M -2.071084 2.389947 C -1.694516 0.956472 -0.848919 0.280944 -0.000718354 -0.000655797 C -0.850297 -0.279169 -1.695189 -0.956423 -2.071077 -2.391316 " transform="matrix(0.86601,0.5,0.5,-0.86601,67.0947,56.79276)"/>
<g clip-path="url(#clip2)" clip-rule="nonzero">
<path style="fill:none;stroke-width:0.3985;stroke-linecap:butt;stroke-linejoin:miter;stroke:rgb(0%,0%,0%);stroke-opacity:1;stroke-dasharray:0.3985,1.99255;stroke-miterlimit:10;" d="M -0.00025 0.00025 L 42.519281 0.00025 " transform="matrix(1,0,0,-1,42.719,42.719)"/>
</g>
<path style="fill:none;stroke-width:0.3985;stroke-linecap:butt;stroke-linejoin:miter;stroke:rgb(0%,0%,0%);stroke-opacity:1;stroke-dasharray:0.3985,1.99255;stroke-miterlimit:10;" d="M -0.00025 0.00025 L -42.519781 0.00025 " transform="matrix(1,0,0,-1,42.719,42.719)"/>
<path style="fill:none;stroke-width:0.3985;stroke-linecap:butt;stroke-linejoin:miter;stroke:rgb(0%,0%,0%);stroke-opacity:1;stroke-dasharray:0.3985,1.99255;stroke-miterlimit:10;" d="M -0.00025 0.00025 L 24.546625 42.519781 " transform="matrix(1,0,0,-1,42.719,42.719)"/>
<path style="fill:none;stroke-width:0.3985;stroke-linecap:butt;stroke-linejoin:miter;stroke:rgb(0%,0%,0%);stroke-opacity:1;stroke-dasharray:0.3985,1.99255;stroke-miterlimit:10;" d="M -0.00025 0.00025 L -24.547125 42.519781 " transform="matrix(1,0,0,-1,42.719,42.719)"/>
<g clip-path="url(#clip3)" clip-rule="nonzero">
<path style="fill:none;stroke-width:0.3985;stroke-linecap:butt;stroke-linejoin:miter;stroke:rgb(0%,0%,0%);stroke-opacity:1;stroke-dasharray:0.3985,1.99255;stroke-miterlimit:10;" d="M -0.00025 0.00025 L 24.546625 -42.519281 " transform="matrix(1,0,0,-1,42.719,42.719)"/>
</g>
<g clip-path="url(#clip4)" clip-rule="nonzero">
<path style="fill:none;stroke-width:0.3985;stroke-linecap:butt;stroke-linejoin:miter;stroke:rgb(0%,0%,0%);stroke-opacity:1;stroke-dasharray:0.3985,1.99255;stroke-miterlimit:10;" d="M -0.00025 0.00025 L -24.547125 -42.519281 " transform="matrix(1,0,0,-1,42.719,42.719)"/>
</g>
</g>
</svg>
